<svg id="Layer_1" data-name="Layer 1" xmlns="http://www.w3.org/2000/svg" viewBox="0 0 2000 1857.68"><defs><style>.cls-1{fill:#0f2447;}.cls-2{fill:#95c7a2;}</style></defs><path class="cls-1" d="M140.79,1104.54l-16.32,7.58c-.39.28-.57.57-.53.89l5.75,42c0,.31.29.55.75.7l17.75,2.93a2,2,0,0,1,1.88,1.86l2.17,15.92a1.73,1.73,0,0,1-.36,1.5,1.71,1.71,0,0,1-1.64.4L37.86,1158.52a2,2,0,0,1-1.88-1.86l-2.72-19.9a2,2,0,0,1,1.31-2.29L137.48,1085a1.88,1.88,0,0,1,.77-.27c.95-.13,1.51.39,1.67,1.56l2.18,15.92A2,2,0,0,1,140.79,1104.54Zm-26.24,47.71-4.42-32.33c-.09-.63-.44-.8-1-.5L58,1143.11q-.61.26-.57.57c0,.21.27.34.7.39l55.57,9C114.33,1153,114.62,1152.79,114.55,1152.25Z"/><path class="cls-1" d="M82.76,942.83q8.51-16,27.29-15.06,15.26.75,22.7,11.34t6.62,27l-2,40.46a1.8,1.8,0,0,1-.63,1.33,1.86,1.86,0,0,1-1.39.5L26.83,1003a1.8,1.8,0,0,1-1.33-.63A1.86,1.86,0,0,1,25,1001L27,961.79q.86-17.49,8.87-26.59t23.27-8.34q16.84.82,22.71,15.92C82.08,943.44,82.4,943.46,82.76,942.83ZM42.69,985.1l29.69,1.47a.71.71,0,0,0,.85-.76l1.07-21.67q.42-8.5-3.43-13.61t-11.08-5.46q-7.38-.36-11.88,4.32T43,962.59l-1.07,21.67A.71.71,0,0,0,42.69,985.1Zm76.63-33.3q-4.25-5.12-11.95-5.5-7.87-.37-12.53,4.37t-5.09,13.27l-1.11,22.63a.7.7,0,0,0,.76.84L121.19,989a.72.72,0,0,0,.84-.77l1.13-23Q123.57,956.93,119.32,951.8Z"/><path class="cls-1" d="M145.59,894.91a1.86,1.86,0,0,1-1.44.36L36.67,879.37a1.92,1.92,0,0,1-1.62-2.2l2.16-14.62a1.89,1.89,0,0,1,.75-1.27,1.87,1.87,0,0,1,1.44-.36l107.48,15.91a1.83,1.83,0,0,1,1.27.75,1.86,1.86,0,0,1,.36,1.44l-2.17,14.62A1.81,1.81,0,0,1,145.59,894.91Z"/><path class="cls-1" d="M154.19,839.94a1.89,1.89,0,0,1-1.47.21L47.32,813.78a1.93,1.93,0,0,1-1.19-.88,1.87,1.87,0,0,1-.21-1.46l3.59-14.35a1.92,1.92,0,0,1,2.34-1.4l46.62,11.66a.65.65,0,0,0,.7-.15.51.51,0,0,0,0-.66L61.45,754a3.06,3.06,0,0,1-.51-2.61L65,735.19c.26-1,.75-1.47,1.48-1.29a2.89,2.89,0,0,1,1.13.78l34.88,46.67c.34.42.69.56,1.05.43l69.32-23.41a7.84,7.84,0,0,1,1.17,0c.72.18,1,.8.7,1.83l-4.1,16.38a2.51,2.51,0,0,1-1.8,1.87l-55.74,18.85c-.73.27-.87.61-.43,1.06l10.52,14.89a2.74,2.74,0,0,0,1,.58l33.06,8.27a1.92,1.92,0,0,1,1.4,2.34l-3.59,14.35A1.86,1.86,0,0,1,154.19,839.94Z"/><path class="cls-1" d="M121.64,626.3a1.86,1.86,0,0,1,0,1.48l-20,51a.7.7,0,0,0,.46,1l28,11a.7.7,0,0,0,1-.45l13.45-34.26a1.84,1.84,0,0,1,1-1.07,1.88,1.88,0,0,1,1.47,0l11.37,4.47a1.88,1.88,0,0,1,1.07,1,1.86,1.86,0,0,1,0,1.48l-13.45,34.26a.71.71,0,0,0,.46,1l28.87,11.34a.71.71,0,0,0,1-.46l20-51a1.92,1.92,0,0,1,2.5-1.1l11.37,4.46a2,2,0,0,1,1.07,1,1.86,1.86,0,0,1,0,1.48L185,730.34a1.82,1.82,0,0,1-1,1.07,1.86,1.86,0,0,1-1.48,0L81.36,691.74a1.88,1.88,0,0,1-1.06-1,1.86,1.86,0,0,1,0-1.48l26.43-67.32a1.9,1.9,0,0,1,2.49-1.09l11.38,4.46A1.9,1.9,0,0,1,121.64,626.3Z"/><path class="cls-1" d="M204.58,476.25a1.84,1.84,0,0,1-.24,1.46l-28.62,46.55a.72.72,0,0,0,.26,1.11l25.61,15.74a.71.71,0,0,0,1.1-.26L222,509.49a1.95,1.95,0,0,1,2.66-.63l10.4,6.4a1.91,1.91,0,0,1,.63,2.65l-19.27,31.35a.71.71,0,0,0,.26,1.11l39.16,24.08a1.85,1.85,0,0,1,.87,1.19,1.87,1.87,0,0,1-.24,1.46l-7.75,12.59a1.81,1.81,0,0,1-1.19.87,1.84,1.84,0,0,1-1.46-.23l-92.55-56.91a1.92,1.92,0,0,1-.64-2.65l37.8-61.48a1.91,1.91,0,0,1,1.2-.87,1.88,1.88,0,0,1,1.46.24l10.4,6.4A1.84,1.84,0,0,1,204.58,476.25Z"/><path class="cls-1" d="M311.15,489.57a34.58,34.58,0,0,1-19.85,2.53,41.58,41.58,0,0,1-19.34-9l-28.59-22.92a40.22,40.22,0,0,1-12.77-16.83,35.31,35.31,0,0,1-1.79-19.87,44.7,44.7,0,0,1,9.5-19.68,45.22,45.22,0,0,1,17.24-13.68,35.4,35.4,0,0,1,19.79-2.57,40.19,40.19,0,0,1,19.2,8.8l28.59,22.92a41,41,0,0,1,13,17,35.29,35.29,0,0,1,1.85,19.93,49.26,49.26,0,0,1-26.79,33.41Zm9.92-40.25Q320,440.64,312,434.2l-29.22-23.43q-8.14-6.52-16.86-5.68t-15,8.74q-6.24,7.79-5.16,16.46t9.22,15.22l29.22,23.42q8,6.44,16.73,5.6t14.95-8.62Q322.13,458,321.07,449.32Z"/><path class="cls-1" d="M418.36,375.14,371,356.49a1,1,0,0,0-1.14.2l-13.91,13.37a.71.71,0,0,0,0,1.14l31.64,32.89a1.88,1.88,0,0,1,.54,1.38,1.83,1.83,0,0,1-.59,1.35l-10.66,10.25a1.83,1.83,0,0,1-1.37.55,1.88,1.88,0,0,1-1.36-.6l-75.32-78.3a1.87,1.87,0,0,1-.54-1.38,1.85,1.85,0,0,1,.59-1.35l31.85-30.64a35.83,35.83,0,0,1,15.35-9.08,29.06,29.06,0,0,1,16.48.21,34.46,34.46,0,0,1,14.88,9.43q7.69,8,9,17.57a29.57,29.57,0,0,1-3.88,18.8.5.5,0,0,0-.13.56.67.67,0,0,0,.45.46l48.75,18a2.54,2.54,0,0,1,.9.48c.6.62.47,1.34-.37,2.15L421,374.62A2.27,2.27,0,0,1,418.36,375.14ZM322.6,336.57l22.17,23a.71.71,0,0,0,1.14,0l17.38-16.72q5.55-5.34,5.8-11.93t-5-12q-5.23-5.43-11.89-5.51c-4.43,0-8.5,1.71-12.2,5.28l-17.38,16.71A.71.71,0,0,0,322.6,336.57Z"/><path class="cls-1" d="M495.21,179.66a1.85,1.85,0,0,1,1.22.83l6.86,10.3a1.87,1.87,0,0,1,.28,1.45,1.85,1.85,0,0,1-.82,1.23l-24.63,16.37a.71.71,0,0,0-.23,1.11l51.78,77.91a1.81,1.81,0,0,1,.29,1.44,1.85,1.85,0,0,1-.82,1.23l-12.32,8.18a1.78,1.78,0,0,1-1.45.29,1.85,1.85,0,0,1-1.22-.82l-51.78-77.91a.72.72,0,0,0-1.12-.22L437.56,236.8a1.92,1.92,0,0,1-2.68-.54L428,226a1.8,1.8,0,0,1-.29-1.44,1.87,1.87,0,0,1,.82-1.23L493.76,180A1.87,1.87,0,0,1,495.21,179.66Z"/><path class="cls-1" d="M589.59,130a1.87,1.87,0,0,1,1-1.11l13.26-6.55a1.88,1.88,0,0,1,1.47-.09,1.86,1.86,0,0,1,1.12,1l48.07,97.44a1.92,1.92,0,0,1-.88,2.58l-13.26,6.54a1.84,1.84,0,0,1-1.47.11,1.87,1.87,0,0,1-1.11-1l-20.34-41.22a.71.71,0,0,0-1.07-.36L579.59,205.4a.71.71,0,0,0-.36,1.08l20.34,41.22a1.89,1.89,0,0,1,.09,1.47,1.86,1.86,0,0,1-1,1.12l-13.26,6.54a1.86,1.86,0,0,1-1.48.1,1.91,1.91,0,0,1-1.11-1l-48.07-97.43a1.86,1.86,0,0,1-.1-1.48,1.9,1.9,0,0,1,1-1.11l13.27-6.54a1.84,1.84,0,0,1,1.47-.1,1.9,1.9,0,0,1,1.11,1l19.91,40.36a.71.71,0,0,0,1.08.37l36.75-18.14a.7.7,0,0,0,.37-1.07l-19.92-40.36A1.88,1.88,0,0,1,589.59,130Z"/><path class="cls-1" d="M728.15,93a1.87,1.87,0,0,1-1.11,1l-51.87,17.68a.71.71,0,0,0-.51,1l9.7,28.45a.71.71,0,0,0,1,.5l34.83-11.88a2,2,0,0,1,1.48.09,1.9,1.9,0,0,1,1,1.12l3.93,11.56a1.82,1.82,0,0,1-.09,1.48,1.9,1.9,0,0,1-1.11,1l-34.84,11.87a.71.71,0,0,0-.5,1l10,29.36a.71.71,0,0,0,1,.5L753,170a1.84,1.84,0,0,1,1.47.09,1.87,1.87,0,0,1,1,1.11l3.94,11.56a1.83,1.83,0,0,1-.09,1.47,1.85,1.85,0,0,1-1.11,1l-68.46,23.33a1.93,1.93,0,0,1-2.45-1.21l-35-102.84a1.88,1.88,0,0,1,.09-1.47,1.86,1.86,0,0,1,1.12-1l68.46-23.33a1.79,1.79,0,0,1,1.47.09,1.89,1.89,0,0,1,1,1.11l3.93,11.56A1.82,1.82,0,0,1,728.15,93Z"/><path class="cls-1" d="M852,160.62a34.13,34.13,0,0,1-15.94-11.06,38.48,38.48,0,0,1-7.81-18.82l-5.79-39.28a38.33,38.33,0,0,1,2-20.28,33.58,33.58,0,0,1,12.07-15.1,46,46,0,0,1,20.3-7.71,47.09,47.09,0,0,1,21.49,1.38,33.19,33.19,0,0,1,15.84,10.49,35.69,35.69,0,0,1,7.7,18,1.87,1.87,0,0,1-.35,1.44,1.84,1.84,0,0,1-1.27.75l-14.51,3c-1.28.18-2-.3-2.17-1.47q-1.4-9.37-8-14.25t-16.35-3.44q-9.71,1.44-14.74,8t-3.65,16l6,40.55q1.36,9.21,8.09,14.08t16.43,3.42q9.69-1.42,14.67-7.93t3.58-15.88c-.17-1.17.38-1.85,1.66-2L906,118.94a2.09,2.09,0,0,1,1.42.28,1.46,1.46,0,0,1,.72,1A36.55,36.55,0,0,1,906,140a33.06,33.06,0,0,1-12.13,14.71,47.13,47.13,0,0,1-20.16,7.52A45.61,45.61,0,0,1,852,160.62Z"/><path class="cls-1" d="M947.29,152.7a1.85,1.85,0,0,1-.63-1.33L941.23,42.85a1.91,1.91,0,0,1,1.83-2l14.77-.74a1.91,1.91,0,0,1,2,1.83l5.43,108.51a1.83,1.83,0,0,1-.49,1.4,1.81,1.81,0,0,1-1.33.63l-14.77.74A1.84,1.84,0,0,1,947.29,152.7Z"/><path class="cls-1" d="M1082.43,42.41a1.85,1.85,0,0,1,.5,1.38l-.53,12.37a1.87,1.87,0,0,1-.61,1.34,1.9,1.9,0,0,1-1.4.51l-29.54-1.27a.72.72,0,0,0-.84.78L1046,151a1.84,1.84,0,0,1-.62,1.34,1.87,1.87,0,0,1-1.39.51l-14.77-.63a1.84,1.84,0,0,1-1.34-.62,1.82,1.82,0,0,1-.5-1.39l4-93.46a.7.7,0,0,0-.76-.83l-28.43-1.21a1.93,1.93,0,0,1-1.85-2l.53-12.36a1.86,1.86,0,0,1,.62-1.34,1.83,1.83,0,0,1,1.39-.5l78.21,3.33A1.86,1.86,0,0,1,1082.43,42.41Z"/><path class="cls-1" d="M1135.4,161.55a1.85,1.85,0,0,1-.33-1.44l7.15-42.48a2.27,2.27,0,0,0,0-1l-22-68.73a2.57,2.57,0,0,1-.15-1c.14-.85.79-1.17,2-1l15.69,2.64a2.26,2.26,0,0,1,2,1.8l14.75,47.95c.25.48.56.53,1,.16L1185.17,58a2.5,2.5,0,0,1,2.46-1.05l15.85,2.67a1.64,1.64,0,0,1,1.4.89,1.56,1.56,0,0,1-.35,1.57l-43.45,57.72a2.54,2.54,0,0,0-.48.89l-7.14,42.48a1.93,1.93,0,0,1-.79,1.26,1.88,1.88,0,0,1-1.44.32l-14.57-2.45A1.88,1.88,0,0,1,1135.4,161.55Z"/><path class="cls-1" d="M1195.33,186.75l14.57-33.45a1.8,1.8,0,0,1,2.45-1.2l12.48,3.13c1.34.34,1.7,1.16,1,2.42l-18,32.76a2.13,2.13,0,0,1-2.58,1l-8.73-2.2Q1194.67,188.75,1195.33,186.75Z"/><path class="cls-1" d="M1407.5,144.44a1.86,1.86,0,0,1-1.48,0l-50.44-21a.71.71,0,0,0-1,.43L1343,151.57a.71.71,0,0,0,.43,1.05l34,14.16a1.92,1.92,0,0,1,1,2.53l-4.7,11.27a1.87,1.87,0,0,1-1,1,1.83,1.83,0,0,1-1.47,0l-34-14.17a.72.72,0,0,0-1.06.43l-17.69,42.43a1.93,1.93,0,0,1-2.52,1l-13.65-5.7a1.85,1.85,0,0,1-1-1,1.9,1.9,0,0,1,0-1.48l41.83-100.27a1.81,1.81,0,0,1,1.05-1,1.83,1.83,0,0,1,1.47,0l66.61,27.78a1.9,1.9,0,0,1,1,1,1.86,1.86,0,0,1,0,1.48l-4.7,11.28A1.86,1.86,0,0,1,1407.5,144.44Z"/><path class="cls-1" d="M1448.63,275.56l4.6-50.71a1,1,0,0,0-.52-1L1436,214.22a.71.71,0,0,0-1.1.3l-22.68,39.61a1.82,1.82,0,0,1-1.17.9,1.79,1.79,0,0,1-1.46-.19l-12.83-7.35a1.83,1.83,0,0,1-.91-1.16,1.9,1.9,0,0,1,.19-1.47l54-94.27a1.85,1.85,0,0,1,1.17-.91,1.83,1.83,0,0,1,1.46.19l38.35,22A35.7,35.7,0,0,1,1504,184a29,29,0,0,1,4.43,15.88,34.43,34.43,0,0,1-4.88,16.92q-5.52,9.63-14.34,13.56a29.54,29.54,0,0,1-19.12,1.54.53.53,0,0,0-.59,0,.72.72,0,0,0-.32.56l-3.57,51.85a2.5,2.5,0,0,1-.21,1c-.42.74-1.15.81-2.17.23l-13.39-7.67A2.26,2.26,0,0,1,1448.63,275.56Zm10.13-102.74-15.89,27.76a.7.7,0,0,0,.29,1.09l20.92,12q6.69,3.83,13.09,2.21t10.14-8.17a16.38,16.38,0,0,0,2-13q-1.8-6.41-8.49-10.23l-20.92-12A.72.72,0,0,0,1458.76,172.82Z"/><path class="cls-1" d="M1505.63,311.24a34.53,34.53,0,0,1-3.05-19.77,41.56,41.56,0,0,1,8.51-19.57l22.17-29.18a40.14,40.14,0,0,1,16.49-13.2,35.26,35.26,0,0,1,19.81-2.31,49.06,49.06,0,0,1,34,25.86,35.45,35.45,0,0,1,3.09,19.71,40.35,40.35,0,0,1-8.3,19.43l-22.17,29.18a41.08,41.08,0,0,1-16.63,13.4,35.32,35.32,0,0,1-19.86,2.37,49.2,49.2,0,0,1-34.11-25.92Zm40.49,8.87q8.66-1.31,14.88-9.49l22.66-29.82q6.31-8.31,5.24-17T1579.77,249q-7.93-6-16.6-4.72t-15,9.61l-22.65,29.82q-6.22,8.19-5.15,16.87t9,14.72Q1537.47,321.42,1546.12,320.11Z"/><path class="cls-1" d="M1711,346.85l10.42,10.47a1.87,1.87,0,0,1,.57,1.37,1.84,1.84,0,0,1-.57,1.36l-77,76.64a1.89,1.89,0,0,1-1.37.57,1.85,1.85,0,0,1-1.36-.57l-10.43-10.48a1.89,1.89,0,0,1-.57-1.37,1.82,1.82,0,0,1,.58-1.36l54.34-54.08a.63.63,0,0,0,.17-.74c-.11-.26-.32-.32-.62-.17L1649.11,376a2.52,2.52,0,0,1-2.5-.69l-5.21-5.24a2.52,2.52,0,0,1-.68-2.5l7.47-36c.15-.3.1-.51-.17-.62a.63.63,0,0,0-.74.16l-54.22,54a1.83,1.83,0,0,1-1.37.56,1.85,1.85,0,0,1-1.36-.57L1579.9,374.6a1.91,1.91,0,0,1,0-2.73l77-76.64a1.93,1.93,0,0,1,2.73,0l10.43,10.48a2.54,2.54,0,0,1,.68,2.5l-9.66,46.57a.89.89,0,0,0,.22.68.5.5,0,0,0,.57.12l46.61-9.43A2.51,2.51,0,0,1,1711,346.85Z"/><path class="cls-1" d="M1829.78,502.29a1.84,1.84,0,0,1-.82,1.23l-10.25,6.94a1.93,1.93,0,0,1-2.68-.53l-16.56-24.5a.71.71,0,0,0-1.11-.21l-77.5,52.4a1.82,1.82,0,0,1-1.45.29,1.86,1.86,0,0,1-1.23-.81l-8.28-12.26a1.84,1.84,0,0,1-.3-1.44,1.87,1.87,0,0,1,.82-1.23l77.49-52.39a.71.71,0,0,0,.22-1.12l-15.94-23.57a1.82,1.82,0,0,1-.29-1.45,1.77,1.77,0,0,1,.81-1.22l10.25-6.94a1.92,1.92,0,0,1,2.68.52l43.84,64.84A1.88,1.88,0,0,1,1829.78,502.29Z"/><path class="cls-1" d="M1880.22,596.22a1.87,1.87,0,0,1,1.11,1L1888,610.4a1.92,1.92,0,0,1-.86,2.59l-97,48.85a1.87,1.87,0,0,1-1.48.11,1.81,1.81,0,0,1-1.11-1l-6.65-13.21a1.8,1.8,0,0,1-.12-1.47,1.88,1.88,0,0,1,1-1.12l41.06-20.66a.72.72,0,0,0,.36-1.08l-18.43-36.61a.71.71,0,0,0-1.08-.36l-41.06,20.67a1.84,1.84,0,0,1-1.47.11,1.9,1.9,0,0,1-1.12-1l-6.65-13.22a1.84,1.84,0,0,1-.11-1.47,1.88,1.88,0,0,1,1-1.12l97-48.84a1.84,1.84,0,0,1,1.47-.11,1.81,1.81,0,0,1,1.12,1l6.65,13.21a1.92,1.92,0,0,1-.86,2.59l-40.2,20.23a.72.72,0,0,0-.36,1.08l18.43,36.61a.72.72,0,0,0,1.08.36l40.2-20.24A1.91,1.91,0,0,1,1880.22,596.22Z"/><path class="cls-1" d="M1918.34,734.57a1.87,1.87,0,0,1-1-1.1l-18.09-51.74a.71.71,0,0,0-1-.5l-28.37,9.92a.71.71,0,0,0-.49,1l12.14,34.74a1.92,1.92,0,0,1-1.18,2.46l-11.53,4a1.86,1.86,0,0,1-1.48-.08,1.83,1.83,0,0,1-1-1.11l-12.15-34.74a.7.7,0,0,0-1-.49l-29.28,10.24a.71.71,0,0,0-.5,1L1841.5,760a1.84,1.84,0,0,1-.08,1.47,1.88,1.88,0,0,1-1.1,1l-11.53,4a1.9,1.9,0,0,1-1.48-.07,1.85,1.85,0,0,1-1-1.11L1802.46,697a1.92,1.92,0,0,1,1.18-2.46l102.57-35.86a1.88,1.88,0,0,1,1.47.08,1.86,1.86,0,0,1,1,1.11l23.87,68.27a1.83,1.83,0,0,1-.08,1.47,1.88,1.88,0,0,1-1.1,1l-11.54,4A1.84,1.84,0,0,1,1918.34,734.57Z"/><path class="cls-1" d="M1851.66,859a34.18,34.18,0,0,1,10.92-16,38.59,38.59,0,0,1,18.77-8l39.23-6.1a38.46,38.46,0,0,1,20.3,1.88,33.67,33.67,0,0,1,15.2,12A46.25,46.25,0,0,1,1964,863a47.34,47.34,0,0,1-1.21,21.49,33.22,33.22,0,0,1-10.38,15.93,35.82,35.82,0,0,1-18,7.84,1.86,1.86,0,0,1-1.44-.35,1.82,1.82,0,0,1-.76-1.26l-3.07-14.49c-.2-1.26.28-2,1.45-2.17q9.38-1.47,14.19-8.15t3.31-16.37q-1.52-9.69-8.15-14.68t-16-3.52l-40.49,6.3q-9.21,1.43-14,8.2t-3.29,16.45q1.5,9.69,8.05,14.61t15.9,3.45c1.17-.17,1.85.37,2,1.64l1.63,14.71a2,2,0,0,1-.26,1.42,1.49,1.49,0,0,1-1,.74,36.64,36.64,0,0,1-19.74-2,33,33,0,0,1-14.8-12,47.09,47.09,0,0,1-7.68-20.11A45.39,45.39,0,0,1,1851.66,859Z"/><path class="cls-1" d="M1860.31,954.07a1.86,1.86,0,0,1,1.33-.64l108.47-6.3a1.9,1.9,0,0,1,1.4.49,1.82,1.82,0,0,1,.64,1.33l.85,14.76a1.88,1.88,0,0,1-1.81,2L1862.73,972a1.92,1.92,0,0,1-2-1.81l-.86-14.77A1.86,1.86,0,0,1,1860.31,954.07Z"/><path class="cls-1" d="M1971.66,1088.49a1.84,1.84,0,0,1-1.38.51l-12.37-.43a1.93,1.93,0,0,1-1.86-2l1-29.56a.71.71,0,0,0-.77-.84l-93.49-3.25a1.93,1.93,0,0,1-1.86-2l.52-14.77a1.78,1.78,0,0,1,.61-1.35,1.83,1.83,0,0,1,1.38-.51l93.48,3.25a.71.71,0,0,0,.84-.77l1-28.43a1.91,1.91,0,0,1,2-1.86l12.37.43a1.87,1.87,0,0,1,1.35.61,1.84,1.84,0,0,1,.51,1.38l-2.72,78.23A1.9,1.9,0,0,1,1971.66,1088.49Z"/><path class="cls-1" d="M1853,1142.2a1.86,1.86,0,0,1,1.43-.34l42.54,6.81a2.44,2.44,0,0,0,1,0l68.55-22.57a2.6,2.6,0,0,1,1-.16c.84.14,1.17.78,1,2L1966,1143.6a2.27,2.27,0,0,1-1.78,2l-47.84,15.14c-.47.24-.52.56-.15,1l40.7,29.46a2.48,2.48,0,0,1,1.07,2.45l-2.54,15.87a1.68,1.68,0,0,1-.87,1.41,1.59,1.59,0,0,1-1.58-.34l-58.07-43a2.39,2.39,0,0,0-.89-.47l-42.54-6.81a1.92,1.92,0,0,1-1.6-2.21l2.34-14.6A1.84,1.84,0,0,1,1853,1142.2Z"/><path class="cls-1" d="M1787,1819.22H212.82a19.71,19.71,0,0,1,0-39.41H1787a19.71,19.71,0,1,1,0,39.41Z"/><path class="cls-1" d="M865.65,1549.66c-9.36-108-100.26-192.84-210.59-192.84-116.68,0-211.57,94.88-211.57,211.49s94.89,211.57,211.57,211.57c110.33,0,201.23-84.89,210.59-192.91a191.67,191.67,0,0,0,0-37.31ZM655.06,1742.5c-96.07,0-174.19-78.11-174.19-174.19S559,1394.13,655.06,1394.13c89.71,0,163.85,68.26,173.14,155.53a166.24,166.24,0,0,1,0,37.31C818.91,1674.31,744.77,1742.5,655.06,1742.5Z"/><path class="cls-1" d="M1271.11,1726.22a12.16,12.16,0,0,1-1.33-.7,176.3,176.3,0,0,1-82.59-83c-.9-2-1.81-3.92-2.65-5.94a8.5,8.5,0,0,1-.63-1.4,174,174,0,0,1,41.85-194,18.65,18.65,0,0,0-12.85-32.28,18.08,18.08,0,0,0-12.37,4.82A210.91,210.91,0,0,0,1134,1587.39a207.75,207.75,0,0,0,13.84,58.2.26.26,0,0,1,.07.21c.49,1.33,1,2.59,1.6,3.91a8.56,8.56,0,0,0,.7,1.68c1,2.52,2.17,5,3.36,7.48a214.32,214.32,0,0,0,101.1,100.89c.84.35,1.68.77,2.51,1.12h.07a17.66,17.66,0,0,0,5.94,1,18.7,18.7,0,0,0,7.9-35.64Z"/><path class="cls-1" d="M1151.88,1587a18.68,18.68,0,0,1-18.68-18.68,213.1,213.1,0,0,1,5.67-48.86,18.69,18.69,0,0,1,36.37,8.59,175.48,175.48,0,0,0-4.67,40.27A18.68,18.68,0,0,1,1151.88,1587Z"/><path class="cls-1" d="M928.25,1559.92h0a18.66,18.66,0,0,1-16.66,27H656c-10.13,0-19.19-7.62-19.67-17.74a18.67,18.67,0,0,1,18.7-19.57H911.59A18.65,18.65,0,0,1,928.25,1559.92Z"/><path class="cls-2" d="M1188.58,1331.59a18.69,18.69,0,0,0-26.34,2l-147.63,172.44-24.67,28.79L843.35,1243.63h47.31a18.69,18.69,0,0,0,0-37.38H741a18.68,18.68,0,0,0,0,37.36H801.5l154.14,306,13.62,27A18.56,18.56,0,0,0,986,1587a17.81,17.81,0,0,0,6.29-1.12,10.64,10.64,0,0,0,1.88-.77c.07,0,.14-.07.21-.07a19,19,0,0,0,6.08-4.89l32.42-37.87,157.77-184.32A18.68,18.68,0,0,0,1188.58,1331.59Z"/><path class="cls-1" d="M1223.44,1195H1050.37a18.69,18.69,0,1,1,0-37.37h173.07a18.69,18.69,0,0,1,0,37.37Z"/><path class="cls-1" d="M1231.87,1227.79l-2.39,2.8a18.31,18.31,0,0,1-31.82-8h0a18.33,18.33,0,0,1,2-12.83l47-83.32H1136.89c-10.12,0-19.17-7.58-19.68-17.68a18.72,18.72,0,0,1,18.63-19.7H1277.6a19.85,19.85,0,0,1,14.19,5.49,18.62,18.62,0,0,1,3.07,22.39l-61,108A18.19,18.19,0,0,1,1231.87,1227.79Z"/><path class="cls-2" d="M1556.32,1568.31a208.83,208.83,0,0,1-11.74,69.32c-.14.35-.21.63-.35.9-1.81,5.18-3.84,10.35-6.08,15.38-1.32,2.93-2.65,5.8-4.05,8.66a1.41,1.41,0,0,1-.28.56c-1.4,2.72-2.86,5.45-4.33,8.1-1.61,2.87-3.21,5.59-4.89,8.32s-3.49,5.45-5.31,8.1a191.09,191.09,0,0,1-17.89,22.64,196.13,196.13,0,0,1-21,20.19c-2.37,2-4.82,3.92-7.27,5.8-2,1.61-4.12,3.15-6.28,4.61a15.79,15.79,0,0,1-2.59,1.82c-1.54,1.12-3.07,2.17-4.61,3.08a29.5,29.5,0,0,1-3.35,2.16c-1.61,1-3.22,2-4.9,2.94a42.25,42.25,0,0,1-4.12,2.37,40.66,40.66,0,0,1-4.19,2.24c-1.4.84-2.87,1.6-4.33,2.3-1.89,1-3.85,1.89-5.73,2.73-.7.35-1.47.7-2.17,1-2.3,1-4.61,2-7,3-1.05.42-2.1.84-3.15,1.19-1.68.7-3.42,1.33-5.17,2-1.47.55-3,1.11-4.54,1.53-1.82.63-3.63,1.26-5.52,1.82-1,.28-2.1.63-3.14.84-2.52.77-5,1.4-7.62,2s-5.38,1.26-8,1.82-5.45,1-8.17,1.47c-.7.14-1.4.21-2,.35-3.35.49-6.77.91-10.2,1.25-2.09.21-4.19.42-6.36.49-1.6.21-3.28.28-5,.35-3.42.21-6.84.28-10.27.28a16.79,16.79,0,0,1-1.88-.07,18.71,18.71,0,0,1-16.56-21.44c1.38-9.27,10-15.82,19.32-15.87,3.68,0,7.31-.16,10.93-.42,2-.14,4-.28,5.94-.49,2.93-.28,5.87-.63,8.73-1.11s5.73-.91,8.6-1.54,5.59-1.19,8.38-2c2.52-.63,5-1.33,7.48-2.09.7-.21,1.4-.42,2.09-.7,2.31-.7,4.55-1.47,6.78-2.31,2.45-.84,4.82-1.81,7.2-2.79.49-.21.91-.35,1.4-.56,1.81-.77,3.56-1.61,5.31-2.45,1-.42,2-.91,2.93-1.4,2.17-1,4.26-2.09,6.29-3.28,2.51-1.33,5-2.72,7.33-4.19s4.76-2.94,7.06-4.54c2.1-1.4,4.19-2.87,6.22-4.33a169.4,169.4,0,0,0,20.33-17.75c1.75-1.68,3.36-3.43,5-5.24,3.36-3.71,6.64-7.55,9.65-11.6.83-1,1.6-2.1,2.37-3.21,1-1.4,2-2.8,3-4.27a8.28,8.28,0,0,0,1-1.6c1-1.54,2-3.08,3-4.62a27.19,27.19,0,0,0,1.88-3.21,34.84,34.84,0,0,0,2.38-4.12,62.1,62.1,0,0,0,3.07-5.73c.91-1.75,1.75-3.49,2.59-5.24a24.78,24.78,0,0,0,1.12-2.38c.7-1.53,1.39-3.14,2-4.75a26.44,26.44,0,0,0,1.26-3.28c.7-1.61,1.33-3.29,1.89-5,.07-.07.14-.21.07-.28.91-2.45,1.74-4.89,2.44-7.34q1.57-5,2.73-10.27c1.12-4.4,2-8.87,2.65-13.41a77.81,77.81,0,0,0,1.05-8.11c.35-3.07.63-6.15.77-9.29s.28-6.22.28-9.37-.07-6.28-.28-9.43-.42-6.22-.77-9.22a77.81,77.81,0,0,0-1.05-8.11,125.94,125.94,0,0,0-2.93-14.46,84,84,0,0,0-2.45-9.15c-.7-2.52-1.53-5-2.44-7.48a.26.26,0,0,0-.07-.21c-.77-2.16-1.54-4.33-2.45-6.43a3.25,3.25,0,0,0-.49-1.11c-.91-2.38-1.88-4.75-3-7.06s-2.24-4.75-3.5-7.06a54.17,54.17,0,0,0-3.07-5.66c-1-2-2.17-3.91-3.35-5.73s-2.24-3.63-3.5-5.45a6.94,6.94,0,0,0-.83-1.25c-1.12-1.61-2.24-3.29-3.5-4.89a50.6,50.6,0,0,0-3.42-4.48c-1.19-1.67-2.59-3.35-4-5-2-2.3-4-4.61-6.08-6.84-1.47-1.61-3-3.15-4.61-4.69-1.82-1.88-3.7-3.62-5.65-5.37-3.7-3.3-7.54-6.48-11.46-9.5-2.31-1.79-4.61-3.5-7-5a160.54,160.54,0,0,0-20.82-12.3c-1.61-.83-3.22-1.6-4.89-2.3-1-.56-2.17-1-3.29-1.54s-2.16-.91-3.28-1.33c-1.75-.76-3.49-1.46-5.31-2.09a17.42,17.42,0,0,0-2-.77c-1.53-.56-3.14-1.12-4.75-1.61-1.19-.42-2.37-.77-3.56-1.12-2-.62-4.12-1.25-6.22-1.74a5.91,5.91,0,0,0-1.19-.35c-2.44-.63-4.89-1.19-7.4-1.68a2,2,0,0,0-.63-.14c-2.8-.63-5.59-1.12-8.46-1.54s-5.8-.83-8.73-1.11c-1.82-.21-3.63-.35-5.52-.42-1.26-.14-2.52-.21-3.84-.28-2.8-.14-5.59-.21-8.39-.21-1.6,0-3.21,0-4.82.07s-3.21.07-4.82.21c-2.52.14-5,.28-7.55.56-.84.07-1.74.14-2.65.28-2.45.28-4.89.55-7.34,1l-1.26.21c-5.51.91-11,2-16.48,3.5l.07.14,30.32,78.74,14,36.19,18,46.61a18.69,18.69,0,0,1-34.87,13.48l-18-46.6-14-36.19L1265,1413.55l-.07-.21-13.35-34.72-.07-.14L1215.93,1286a18.7,18.7,0,0,1,3.24-18.86h0a18.68,18.68,0,0,1,31.63,5.42l35.68,92.48v.07c2.38-.7,4.68-1.33,7.06-2,4.75-1.19,9.57-2.24,14.39-3.08,1.89-.35,3.84-.63,5.73-.91,2.51-.42,5-.7,7.55-1,1.39-.21,2.79-.34,4.19-.48,1.6-.14,3.21-.28,4.82-.35,2.3-.21,4.54-.35,6.78-.42h.35c2.44-.07,5-.14,7.4-.14,3.43,0,6.85.07,10.27.28,1.75.07,3.5.14,5.24.35,2,.07,4.06.28,6.08.48h.07c3.43.35,6.78.77,10.13,1.26.63.14,1.33.21,2,.35,2.72.42,5.45.91,8.17,1.47a26.86,26.86,0,0,1,3.22.77c2.16.35,4.33.91,6.43,1.47a31.46,31.46,0,0,1,3.56.9c2,.49,4,1,5.94,1.68,1.75.56,3.42,1.05,5.17,1.68,1.54.49,3.07,1,4.54,1.53,1.75.63,3.49,1.26,5.17,2,1,.35,2.1.77,3.08,1.19,2.65,1,5.38,2.23,8,3.42s5.31,2.45,7.9,3.78a10.17,10.17,0,0,1,2,1c2.31,1.12,4.54,2.38,6.78,3.64a6.9,6.9,0,0,1,1.61,1c2.16,1.19,4.26,2.45,6.35,3.78.91.49,1.75,1,2.59,1.6,2.17,1.4,4.33,2.8,6.43,4.34,2.51,1.74,5,3.56,7.41,5.38a78.49,78.49,0,0,1,6.7,5.38c1.75,1.39,3.5,2.86,5.17,4.47a211.81,211.81,0,0,1,29,31.23c1.89,2.59,3.77,5.17,5.59,7.83s3.56,5.38,5.31,8.1c1.28,2,2.5,4,3.65,6.08,2,3.49,3.92,7.13,5.78,10.76,1.4,2.93,2.8,5.87,4.12,8.8A208,208,0,0,1,1556.32,1568.31Z"/><path class="cls-2" d="M952.6,772.27h.07l2.61-1.06v-8.86a27.32,27.32,0,0,0-2.68-11.79,27.75,27.75,0,0,0-2.67,11.79v11.12l.93-.42.1,0Z"/><path class="cls-2" d="M964.17,758.77A27,27,0,0,0,961.49,747a27.58,27.58,0,0,0-2.67,11.82v11.05l2.67-1.16,2.68-1.12Z"/><path class="cls-2" d="M946.38,766.09a27.29,27.29,0,0,0-2.67-11.8,27.74,27.74,0,0,0-2.68,11.8v11.08l2.68-1.19,2.67-1.1Z"/><path class="cls-2" d="M982,751.43a27.84,27.84,0,0,0-2.68-11.83,27.39,27.39,0,0,0-2.67,11.83v11.08l2.67-1.19,2.68-1.13Z"/><path class="cls-2" d="M973.06,755.07a27.39,27.39,0,0,0-2.67-11.8,27.81,27.81,0,0,0-2.65,11.8v11.11l2.65-1.22,2.67-1.1Z"/><path class="cls-2" d="M990.88,747.75a27.83,27.83,0,0,0-2.67-11.82,27.12,27.12,0,0,0-2.68,11.82v11.09l2.68-1.2,2.67-1.12Z"/><polygon class="cls-2" points="937.49 790.86 1005.99 762.61 1074.49 790.86 1074.49 782.45 1005.99 754.2 937.49 782.45 937.49 790.86"/><polygon class="cls-2" points="864.8 704.22 849.01 704.22 850.14 713.24 864.8 713.24 864.8 704.22"/><rect class="cls-2" x="501.7" y="880.5" width="22.33" height="32.8"/><path class="cls-2" d="M999.74,744.08a27.83,27.83,0,0,0-2.64-11.83,27.43,27.43,0,0,0-2.68,11.83v11.08L997.1,754l2.64-1.09Z"/><rect class="cls-2" x="340.43" y="880.5" width="22.33" height="32.8"/><path class="cls-2" d="M635.74,925.23v52.42h20V899.8C649.53,903.67,635.74,913.56,635.74,925.23Z"/><path class="cls-2" d="M659.87,899.8v77.85h20V925.23C679.91,913.56,666.12,903.67,659.87,899.8Z"/><polygon class="cls-2" points="836.77 704.22 810.96 704.22 812.09 713.24 835.64 713.24 836.77 704.22"/><polygon class="cls-2" points="782.93 704.22 782.93 713.24 797.59 713.24 798.75 704.22 782.93 704.22"/><path class="cls-2" d="M947.12,886.37h53.1v-49.2C989.17,841.55,961.75,855.15,947.12,886.37Z"/><path class="cls-2" d="M1007.54,837.17v49.2h53.13C1046,855.15,1018.59,841.55,1007.54,837.17Z"/><path class="cls-2" d="M1006,773.34A10.68,10.68,0,1,0,1016.66,784,10.71,10.71,0,0,0,1006,773.34Z"/><rect class="cls-2" x="1007.54" y="947.68" width="55.07" height="52.81"/><path class="cls-2" d="M246.25,931c8.22-19.34,27.07-28.68,27.07-28.68s18.85,9.34,27.06,28.68h7.74V913.3h15.21V858.75H318V853h5.29V841.9l6.31-10.12.71-23h3.06l.71,23,6.31,10.12V853h5.29v5.8h-5.29v16h22.33v-16h-5.28V853h5.28V841.9l6.74-10.28.71-22.81h3.06L374,832l5.93,9.92V853h5.25v5.8h-5.25V913.3H390.8v-4.83h6v-6.12h5.67V820.48h5.22V814.1h5.44v-5.29h5.45V803.4h5.12V781.33h-5.28v-5.8h5.28v-11L430,754.36l.71-23h3.06l.74,23,6.31,10.12v11h5.25v5.8H440.8V803.4h5.13v5.41h5.44v5.29h5.45v6.38H462v81.87h5.64v6.12h6v4.83h10.92V858.75h-5.29V853h5.29V841.9l5.9-9.92.74-23.17h3.06l.71,22.81,6.73,10.28V853H507v5.8H501.7v16H524v-16h-5.28V853H524V841.9l6.32-10.12.7-23h3.06l.71,23,6.32,10.12V853h5.28v5.8h-5.28V913.3h15.17v5.8h6.13c.32-23.84.64-40.85.64-40.85h-4.9V872h7V859.37a3.73,3.73,0,1,1,5.73-3.13,3.65,3.65,0,0,1-1.8,3.16V872h8.18s6.58-12.86,13.09-12a6.08,6.08,0,0,1,5.28,5s-3.22-.68-4.13,3.19,5.55,7.41,10,5.67,7.83-8.73,4.09-13.24-6.93-1.52-6.93-1.52.39-4.64,8.57-4.64h7.38l2.87-9.89H621v4h4.87V831.14h-3.19v-4.77l5.64-10.24h-4.74v-3.71l7.31-2.35V796.34h2.32l1.65,12h6L656.17,788V775.5a3.72,3.72,0,1,1,5.38-3.32,3.76,3.76,0,0,1-2,3.32V788l15.27,20.3h6l1.67-12h2.29v13.73l7.35,2.35v3.71h-4.77L693,826.37v4.77h-3.22v17.34h4.89v-4h3.39l2.87,9.89h7.41c8.15,0,8.53,4.64,8.53,4.64s-3.22-3-6.92,1.52-.39,11.47,4.09,13.24,10.92-1.77,10-5.67-4.12-3.19-4.12-3.19a6.06,6.06,0,0,1,5.28-5c6.51-.81,13.08,12,13.08,12h8.19V859.43a3.71,3.71,0,1,1,3.93-.06V872h7v6.25h-4.86s.06,4.35.19,11.73.26,17.81.42,29.93h9.92v10.15h8.51V704.22H766v-5.31h5.64V654.25l11.28,41.27v3.39h16.46l5.45-43.34,5.44,43.34h27.16l5.45-43.34,5.44,43.34H864.8v-3.39l11.28-41.27v44.66h5.63v5.31h-5.63V802.4h5.67V790.93H898v-6.38h-2.84l7.06-7.06V709.15h-3.29v-8.31l3.74-3.84V675.93l2.64-13.34L908,678.45l8.74-42v-12h-1.65v-2.23h1.65v-2.64h-5.26v-4.25h5.26v-4.1h-1.65l2.52-5.57h4.51l2.54,5.57H923v4.1h5.22v4.25H923v2.64h1.64v2.23H923v12l8.7,41.92,2.67-15.86L937,675.93V697l3.7,3.84v8.31h-3.25v42l37.34-15.41,29.81-29.83h0a3,3,0,0,1-1.45-1.5h-5.61v-2.34h5.61a3,3,0,0,1,1.6-1.6v-5.61h2.33v5.61a3,3,0,0,1,1.6,1.6h5.61v2.34h-5.61a3,3,0,0,1-1.46,1.5h0l29.84,29.83,37.34,15.41v-42h-3.28v-8.31l3.7-3.84V675.93l2.68-13.34,2.67,15.86,8.73-41.92v-12h-1.64v-2.23H1089v-2.64h-5.25v-4.25H1089v-4.1h-1.64l2.51-5.57h4.51l2.55,5.57h-1.64v4.1h5.21v4.25h-5.21v2.64h1.64v2.23h-1.64v12l8.69,42,2.68-15.86,2.67,13.34V697l3.71,3.84v8.31h-3.26v68.34l7,7.06H1114v6.38h10.27l1.26-51.33h3.32l.68,27.26h5.63V802.4h8.48v3.77h2.87l1.16-66.57H1151l.09,5.87h6.19v57.06h16.59l1-52.88h3.32l1.19,64.09h11.28V779.17h5.31V756.42h5.32V745.47h5.93l1-32.06h3.35l1,32.06h5.93v10.95h5.32v22.75H1229v45H1229l-.26,7.8,11.34,4.41v-16h5.61l.68-35.57h3l.68,35.57h5.6v22l8.58,3.32V828h5.6l.65-35.57h3L1274,828h5.6v23.81l8.61,3.32V835.59h5.6l.65-35.61h3l.65,35.61h5.6v25.55l8.58,3.32v-21.3h5.6l.68-35.61h3l.65,35.61h5.64v27.32l6,2.32V783.9h5.25V756.42h5.32V745.47h5.92l1-32.06h3.35l1,32.06h5.93v10.95h5.31V783.9h5.26V934.54h15.72l1.42-39h5.7l1.45,39h20.85v-7.06l66.69-49.07,4.93-28.36,4.93,28.36,66.7,49.07v7.06h22.17V897.19h11.08v37.35h20.82v-11.8h5.28v11.8h20.82V897.19h11.08v37.35h20.82v-11.8h5.28v11.8h20.81V897.19h11.09v37.35h20.78v-11.8h5.32v11.8h17.26c-42.64-378.68-363.92-673-754-673C610.23,261.52,289.73,554,245.51,931Z"/><rect class="cls-2" x="1007.54" y="893.71" width="55.07" height="46.66"/><rect class="cls-2" x="945.19" y="893.71" width="55.03" height="46.66"/><path class="cls-2" d="M1008.67,751.49V740.41a27.84,27.84,0,0,0-2.68-11.83,27.39,27.39,0,0,0-2.67,11.83v11.08l2.67-1.19Z"/><rect class="cls-2" x="945.19" y="947.68" width="55.03" height="52.81"/><path class="cls-2" d="M1026.45,747.75a27.25,27.25,0,0,0-2.67-11.82,27.69,27.69,0,0,0-2.68,11.82v8.77l2.68,1.12,2.67,1.2Z"/><path class="cls-2" d="M1017.56,744.08a27.29,27.29,0,0,0-2.68-11.83,27.86,27.86,0,0,0-2.67,11.83v8.8l2.67,1.09,2.68,1.19Z"/><path class="cls-2" d="M1035.34,751.43a27.39,27.39,0,0,0-2.67-11.83,27.83,27.83,0,0,0-2.67,11.83v8.76l2.67,1.13,2.67,1.19Z"/><path class="cls-2" d="M1061,773l.1,0,.94.42V762.35a27.76,27.76,0,0,0-2.68-11.79,27.31,27.31,0,0,0-2.67,11.79v8.86l2.61,1.06h.06Z"/><path class="cls-2" d="M1044.24,755.07a27.26,27.26,0,0,0-2.68-11.8,27.8,27.8,0,0,0-2.64,11.8v8.79l2.64,1.1,2.68,1.22Z"/><path class="cls-2" d="M1071,766.09a27.74,27.74,0,0,0-2.68-11.8,27.29,27.29,0,0,0-2.67,11.8v8.79l2.67,1.1,2.68,1.19Z"/><path class="cls-2" d="M1053.16,758.77a27.58,27.58,0,0,0-2.67-11.82,27.16,27.16,0,0,0-2.68,11.82v8.77l2.68,1.12,2.67,1.16Z"/></svg>